<?xml version="1.0" encoding="utf-8"?>
<!-- Generator: Adobe Illustrator 15.1.0, SVG Export Plug-In . SVG Version: 6.00 Build 0)  -->
<!DOCTYPE svg PUBLIC "-//W3C//DTD SVG 1.1//EN" "http://www.w3.org/Graphics/SVG/1.1/DTD/svg11.dtd">
<svg version="1.1" id="Layer_1" xmlns="http://www.w3.org/2000/svg" xmlns:xlink="http://www.w3.org/1999/xlink" x="0px" y="0px"
	 width="240px" height="170px" viewBox="0 0 240 170" enable-background="new 0 0 240 170" xml:space="preserve">
<g id="Logo">
	<g>
		<g>
			<path fill="#0078AE" d="M81.172,158.411c-0.137-0.719-0.583-1.33-1.283-1.745c-0.681-0.417-1.733-0.655-2.888-0.655
				c-1.154,0-2.209,0.237-2.895,0.651c-0.859,0.512-1.333,1.306-1.333,2.239v10.584h1.863v-4.836h4.736v4.836h1.864v-10.584
				l-0.018-0.49H81.172z M74.636,158.901c0-0.324,0.236-0.537,0.435-0.658c0.392-0.238,1.134-0.385,1.936-0.385
				c0.793,0,1.525,0.146,1.913,0.385c0.207,0.126,0.452,0.342,0.452,0.658v3.887h-4.736V158.901z M90.887,156.152h1.862v13.333
				h-1.72l-4.881-9.167l0.001,9.167h-1.863v-13.333h1.738l4.866,9.134L90.887,156.152z M102.491,156.152h1.862v13.333h-1.72
				l-4.884-9.167l0.004,9.167h-1.863v-13.333h1.737l4.868,9.134L102.491,156.152z M107.36,156.134h1.864v13.352h-1.864V156.134z
				 M118.676,156.134h1.881v8.891c0,0.867-0.241,1.438-0.833,1.971l-2.983,2.631h-0.742l-2.979-2.629
				c-0.595-0.535-0.837-1.105-0.837-1.973v-8.891h1.88v8.909c0,0.354,0,0.354,0.201,0.544l2.114,1.887l2.127-1.897
				c0.171-0.172,0.171-0.172,0.171-0.533V156.134z M123.54,156.134h7.547v1.863h-5.684v3.871h5.684v1.882H125.4
				c-0.007,0.714-0.026,2.771,0.052,3.087c0.169,0.494,1.097,0.768,1.879,0.768h3.756v1.881h-4.245v-0.039
				c-0.764-0.065-1.463-0.281-2.003-0.613c-0.837-0.514-1.299-1.303-1.299-2.221V156.134z M137.973,156.152h-3.809v13.333h1.845
				v-4.729h1.892c0.516,0,1.981,0.198,1.981,1.081v3.648h1.863v-3.648c0-0.778-0.375-1.471-0.999-1.926
				c0.614-0.463,0.999-1.178,0.999-1.957v-2.947C141.745,156.903,139.797,156.152,137.973,156.152z M136.009,157.909h1.964
				c0.646,0,1.909,0.331,1.909,1.098v2.947c0,0.998-1.777,1.027-1.981,1.027h-1.892V157.909z M152.547,166.017
				c-0.019,1.076-0.488,2.053-1.319,2.754c-0.708,0.586-1.746,0.906-2.923,0.906c-0.68,0-1.362-0.105-1.975-0.305
				c-1.33-0.458-2.141-1.504-2.122-2.732l0.009-0.492l1.815,0.037l0.021,0.457c0.024,0.537,0.507,0.955,0.971,1.088
				c1.206,0.334,2.286,0.209,3.011-0.385c0.413-0.338,0.636-0.803,0.65-1.344c0.012-1.25-0.871-2.086-2.701-2.548
				c-1.025-0.255-2.183-0.597-2.918-1.373c-1.216-1.316-1.106-3.817,0.215-5.056c0.683-0.644,1.83-1.029,3.064-1.029
				c1.241,0,2.335,0.383,2.999,1.052c0.469,0.472,0.713,1.076,0.709,1.752l-0.003,0.497l-1.866-0.039l0.006-0.484
				c0.002-0.203-0.062-0.366-0.202-0.508c-0.289-0.291-0.865-0.465-1.544-0.465c-0.776,0-1.521,0.227-1.894,0.576
				c-0.531,0.506-0.704,1.769-0.154,2.413c0.42,0.509,1.328,0.736,2.058,0.919C150.372,162.195,152.569,163.126,152.547,166.017z
				 M163.552,158.411c-0.137-0.719-0.583-1.328-1.282-1.745c-0.68-0.417-1.732-0.655-2.887-0.655s-2.211,0.237-2.895,0.651
				c-0.861,0.511-1.336,1.306-1.336,2.239v10.584h1.863v-4.836h4.738v4.836h1.861v-10.584l-0.018-0.49H163.552z M157.016,158.901
				c0-0.324,0.236-0.537,0.433-0.658c0.394-0.238,1.136-0.385,1.938-0.385c0.794,0,1.525,0.146,1.913,0.385
				c0.206,0.126,0.454,0.342,0.454,0.658v3.887h-4.738V158.901z M170.415,156.152h-3.809v13.333h1.847v-4.729h1.892
				c0.515,0,1.98,0.198,1.98,1.081v3.648h1.864v-3.648c0-0.778-0.377-1.471-0.999-1.926c0.612-0.463,0.999-1.178,0.999-1.957v-2.947
				C174.189,156.903,172.24,156.152,170.415,156.152z M168.453,157.909h1.962c0.646,0,1.91,0.331,1.91,1.098v2.947
				c0,0.998-1.776,1.027-1.98,1.027h-1.892V157.909z M185.133,156.152v3.789c0,0.81-0.234,1.375-0.814,1.954l-2.363,2.461v5.111
				h-1.862v-5.111l-2.369-2.469c-0.57-0.571-0.808-1.137-0.808-1.946v-3.789h1.881v3.808c0,0.301,0.055,0.415,0.317,0.676
				l1.909,2.002l1.906-1.993c0.271-0.27,0.322-0.384,0.322-0.685v-3.808H185.133z"/>
			<g>
				<polygon fill="#7AC143" points="237.14,155.884 205.916,155.884 208.689,160.182 235.788,160.182 				"/>
				<polygon fill="#0078AE" points="203.557,160.002 205.856,163.568 210.872,163.568 205.916,155.884 				"/>
				<polygon fill="#7AC143" points="188.997,163.568 188.997,167.867 208.62,167.867 210.872,163.568 				"/>
			</g>
			<g>
				<polygon fill="#7AC143" points="18.551,155.884 49.774,155.884 47.002,160.182 19.902,160.182 				"/>
				<polygon fill="#0078AE" points="52.134,160.002 49.833,163.568 44.818,163.568 49.774,155.884 				"/>
				<polygon fill="#7AC143" points="66.694,163.568 66.694,167.867 47.07,167.867 44.818,163.568 				"/>
			</g>
		</g>
		<g>
			<path fill="#7AC143" d="M68.643,95.389l-16.845,47.877h-4.866l-7.509-22.186l-5.139-16.174l-5.13,16.03l-7.577,22.329H16.71
				L0,95.389h5.306l13.767,40.79l13.703-40.79H35.8l13.638,40.79l13.83-40.79H68.643z M94.398,113.665
				c3.067,3.384,4.387,8.227,3.819,14.001l-0.064,0.651H68.873c1.007,7.355,6.914,10.658,12.488,10.658
				c3.693,0,8.773-1.463,11.197-4.672l0.447-0.593l3.446,2.755l-0.426,0.562c-3.088,4.051-8.708,6.567-14.664,6.567
				c-10.201,0-17.324-7.205-17.324-17.521c0-10.028,7.447-17.59,17.324-17.59C86.74,108.484,91.371,110.324,94.398,113.665z
				 M81.361,112.905c-6.617,0-11.548,4.436-12.485,11.124h24.97C93.492,117.047,88.872,112.905,81.361,112.905z M137.898,126.074
				c0,10.52-6.857,17.588-17.061,17.588c-5.18,0-9.925-2.272-12.903-6.06v5.531h-4.62V95.389h4.62v18.952
				c2.825-3.752,7.372-5.856,12.838-5.856C131.016,108.484,137.898,115.554,137.898,126.074z M108.001,126.007
				c0,7.676,5.198,13.035,12.639,13.035c7.676,0,12.639-5.09,12.639-12.968c0-9.612-6.529-13.036-12.639-13.036
				C113.316,113.038,108.001,118.493,108.001,126.007z"/>
			<g>
				<g>
					<path fill="#0078AE" d="M151.7,136.31h23.371v-6.746h6.88v11.188l-6.802,2.168h-30.673v-11.926
						c0-10.766,9.744-13.967,19.077-13.967c4.295,0,11.244-1.568,11.244-7.769c0-6.337-4.905-8.312-10.765-8.312
						c-5.452,0-12.129,1.021-12.265,7.769h-7.155c0.683-10.971,9.266-14.105,19.42-14.105c8.857,0,17.852,3.816,17.852,14.513
						c0,10.971-8.722,14.583-18.331,14.651c-4.768,0-11.854,1.227-11.854,7.29V136.31z M205.254,112.597
						c10.902,0,18.602,5.111,18.602,15.127c0,9.88-7.972,15.672-18.533,15.672c-9.879,0-19.011-2.861-19.077-13.832h7.085
						c0,6.201,6.747,7.223,11.789,7.223c6.199,0,11.652-3.135,11.652-9.062c0-5.451-4.771-8.312-11.518-8.312h-18.263v-16.765V98.11
						l5.559-2.89h25.691v6.609h-24.162v10.767H205.254z M223.955,97.221h-3.064v-2c2.935,0,5.409,0,8.357,0v2h-3.064v8.069h-2.229
						V97.221z M237.785,105.306v-3.985h-4.504v3.985h-2.243v-10.07h2.243v4.027h4.504v-4.027H240v10.07H237.785z"/>
				</g>
			</g>
		</g>
		<g>
			<path fill="#BF311A" d="M132.88,31.054c-1.716,2.716-3.716,5.757-5.971,8.914c-1.576-3.997-3.138-8.186-4.685-12.579
				c1.457-2.47,2.874-4.954,4.282-7.423c0.507-0.888,0.994-1.743,1.466-2.564C129.452,21.633,131.086,26.241,132.88,31.054z
				 M150.996,15.459c-1.719,2.481-3.556,5.316-5.527,8.438c1.443,4.297,3.202,9.318,5.246,14.631
				c1.715-2.405,3.491-4.971,5.332-7.714c-1.576-4.501-3.157-9.29-4.745-14.377C151.199,16.104,151.099,15.78,150.996,15.459z"/>
			<path fill="#0078AE" d="M103.504,15.264c0.266,1.009,0.586,2.229,0.963,3.623C94.751,39.679,88.682,48.44,81.083,52.935
				c-3.077,0.198-3.263,0.21-4.852,0.784C82.604,49.841,89.08,38.824,96.6,19.054c2.368-6.223,3.349-8.799,4.347-9.465
				c0.248,0.078,0.576,0.181,0.826,0.259C102.383,10.983,102.444,11.225,103.504,15.264z M148.177,7.292
				c-2.026-5.058-3.609-6.694-6.073-7.267c-1.533,0.086-2.963,0.906-4.55,2.593c1.791,2.708,3.337,7.285,5.067,12.616
				C144.715,11.952,146.526,9.312,148.177,7.292z M96.807,57.908c3.485,1.927,4.306,2.464,8.251,5.042
				c4.05-2.863,7.818-6.302,11.273-9.969c-1.55-3.545-2.945-6.995-4.196-10.293C107.807,48.331,102.85,53.542,96.807,57.908z
				 M119.68,19.936c0.272-0.496,0.54-0.99,0.81-1.482c1.886-3.457,3.451-6.325,4.808-8.693c-2.148-6.019-3.085-7.764-5.207-7.777
				c-1.35,0.354-2.764,2.247-4.533,5.426c0.583,1.54,1.275,3.717,2.235,6.731C118.418,16.109,119.048,18.032,119.68,19.936z
				 M84.909,53.345c3.045,0.682,3.786,0.97,7.344,2.356c6.991-4.681,12.698-11.569,17.667-19.108
				c-1.422-4.079-2.602-7.817-3.576-11.094C98.816,39.839,92.954,48.174,84.909,53.345z M164.033,4.575
				c-1.283-0.394-2.653-0.077-4.132,0.853c1.771,2.798,3.268,7.185,4.927,12.775c1.852-2.456,3.378-4.264,4.698-5.548
				C167.809,8.066,166.241,5.797,164.033,4.575z M109.968,66.439c3.619,2.717,4.686,3.575,8.652,6.769
				c1.73-1.296,3.555-2.73,5.493-4.377c-1.852-3.368-3.558-6.728-5.128-10.036C115.709,61.936,112.724,64.366,109.968,66.439z
				 M129.729,46.881c1.713,4.053,3.443,7.871,5.189,11.463c1.939-2.119,3.982-4.474,6.136-7.108
				c-1.853-4.162-3.601-8.373-5.237-12.529C133.696,41.725,131.667,44.439,129.729,46.881z"/>
			<path fill="#EF4135" d="M126.909,39.968c-3.068,4.295-6.614,8.804-10.578,13.013c-1.55-3.545-2.945-6.995-4.196-10.293
				c-0.795-2.098-1.534-4.134-2.216-6.094c-1.422-4.079-2.602-7.817-3.576-11.094c1.56-2.971,3.189-6.194,4.927-9.707
				c1.667-3.37,3.06-6.183,4.286-8.384c0.583,1.54,1.275,3.717,2.235,6.731c0.625,1.968,1.255,3.892,1.887,5.795
				c0.844,2.542,1.692,5.032,2.545,7.454C123.771,31.782,125.333,35.971,126.909,39.968z M159.901,5.428
				c-2.59,1.629-5.519,5.143-8.905,10.031c0.103,0.321,0.203,0.645,0.306,0.979c1.588,5.087,3.169,9.876,4.745,14.377
				c0.111-0.168,0.222-0.328,0.335-0.497c3.439-5.146,6.183-9.11,8.446-12.114C163.169,12.613,161.672,8.227,159.901,5.428z
				 M142.989,16.363c-0.123-0.381-0.245-0.756-0.368-1.129c-1.73-5.331-3.276-9.907-5.067-12.616
				c-2.478,2.633-5.337,7.381-9.581,14.785c1.479,4.23,3.113,8.838,4.907,13.652c0.936,2.508,1.918,5.071,2.937,7.654
				c1.637,4.156,3.385,8.367,5.237,12.529c2.991-3.656,6.2-7.853,9.661-12.708c-2.044-5.313-3.803-10.334-5.246-14.631
				C144.496,21.012,143.664,18.447,142.989,16.363z"/>
			<path fill="#7AC143" d="M115.557,7.409c-1.226,2.201-2.619,5.014-4.286,8.384c-1.737,3.512-3.367,6.736-4.927,9.707
				c-0.742-2.495-1.364-4.723-1.877-6.613c-0.377-1.394-0.698-2.614-0.963-3.623c-1.06-4.039-1.121-4.281-1.732-5.416
				c-0.25-0.078-0.578-0.181-0.826-0.259l1.016-0.574c2.286-1.236,3.423-1.827,5.142-2.57c1.685-0.796,2.938-1.288,5.416-2.203
				l0.129-0.047C113.842,3.973,114.529,4.7,115.557,7.409z M129.729,46.881c-0.944-2.233-1.885-4.54-2.819-6.913
				c-3.068,4.295-6.614,8.804-10.578,13.013c0.837,1.913,1.724,3.855,2.653,5.814c1.57,3.308,3.277,6.668,5.128,10.036
				c2.707,4.925,5.718,9.866,9.074,14.686c1.894-2.97,4.811-7.482,8.357-12.753c-2.232-3.773-4.442-7.923-6.627-12.418
				C133.172,54.752,131.441,50.934,129.729,46.881z M164.828,18.204c-2.264,3.004-5.007,6.969-8.446,12.114
				c-0.113,0.168-0.224,0.329-0.335,0.497c1.633,4.665,3.263,9.021,4.883,13.057c2.898-3.678,5.799-7.168,8.6-10.266
				c-1.264-3.843-2.553-8.016-3.87-12.564C165.376,20.061,165.101,19.122,164.828,18.204z M148.177,7.292
				c0.832,2.084,1.742,4.753,2.819,8.167c3.387-4.888,6.315-8.402,8.905-10.031c-1.058-1.667-2.211-2.785-3.561-3.238
				c-2.486-0.616-3.463-0.852-5.688-1.182c-2.155-0.415-3.435-0.574-5.738-0.772l-2.812-0.211
				C144.567,0.598,146.15,2.233,148.177,7.292z M141.054,51.237c1.807,4.05,3.708,8.05,5.715,11.885
				c2.817-4.049,5.851-8.294,8.962-12.462c-1.82-4.076-3.496-8.18-5.016-12.131C147.254,43.384,144.045,47.581,141.054,51.237z
				 M125.297,9.761c0.397,1.113,0.838,2.373,1.332,3.795c0.432,1.236,0.882,2.529,1.344,3.847
				c4.244-7.404,7.104-12.152,9.581-14.785c-1.114-1.683-2.322-2.647-3.731-2.617c-3.044,0.266-7.111,0.651-10.107,1.204
				l-3.625,0.779C122.212,1.997,123.148,3.742,125.297,9.761z M176.137,10.422c-2.583-1.44-6.057-3.336-8.795-4.524l-3.309-1.323
				c2.208,1.222,3.775,3.491,5.493,8.08c1.161,3.096,2.392,7.25,3.936,12.853c0.29,1.058,0.579,2.086,0.869,3.101
				c2.808-2.721,5.431-4.858,7.743-6.169C180.094,15.665,178.373,11.891,176.137,10.422z"/>
		</g>
	</g>
</g>
</svg>
